<svg xmlns="http://www.w3.org/2000/svg" width="2000" height="2000" viewBox="0 0 2000 2000">
  <metadata><?xpacket begin="﻿" id="W5M0MpCehiHzreSzNTczkc9d"?>
<x:xmpmeta xmlns:x="adobe:ns:meta/" x:xmptk="Adobe XMP Core 5.6-c142 79.160924, 2017/07/13-01:06:39        ">
   <rdf:RDF xmlns:rdf="http://www.w3.org/1999/02/22-rdf-syntax-ns#">
      <rdf:Description rdf:about=""/>
   </rdf:RDF>
</x:xmpmeta>
                                                                                                    
                                                                                                    
                                                                                                    
                                                                                                    
                                                                                                    
                                                                                                    
                                                                                                    
                                                                                                    
                                                                                                    
                                                                                                    
                                                                                                    
                                                                                                    
                                                                                                    
                                                                                                    
                                                                                                    
                                                                                                    
                                                                                                    
                                                                                                    
                                                                                                    
                                                                                                    
                           
<?xpacket end="w"?></metadata>
<defs>
    <style>
      .cls-1 {
        fill-rule: evenodd;
      }
    </style>
  </defs>
  <path id="minimize" class="cls-1" d="M923.7,200.385l-0.4-75.438q-0.084-15.867,9.081-25.744t23.69-9.952q14.649-.077,23.855,9.7t9.291,25.647l0.4,75.439,10.01-.053-0.4-75.439q-0.084-15.867,9.021-25.743t23.87-9.953q14.535-.077,23.8,9.7t9.35,25.647l0.4,75.438,10.25-.054-0.38-72.265q-0.12-22.338-11.97-35.093t-31.99-12.649a40.125,40.125,0,0,0-21.33,5.789q-9.24,5.725-16.141,17.358-6.653-11.437-16.021-17.127a40.33,40.33,0,0,0-21.576-5.624q-20.14.106-31.731,12.985t-11.472,35.218l0.382,72.264Zm653.72,247.032,85.92-80.936-7.03-7.464-85.92,80.936Zm99.2-107.612a6.86,6.86,0,0,0,1.87,5.194,7.325,7.325,0,0,0,5.29,2.4,7.15,7.15,0,0,0,5.32-2,6.766,6.766,0,0,0,2.23-5.115,7.541,7.541,0,0,0-2.17-5.332,7.086,7.086,0,0,0-10.18-.305A7.238,7.238,0,0,0,1676.62,339.805Zm192.2,619.358q18.315-.058,29.7,10.464T1909.96,997q0.045,16.851-11.27,27.444t-29.63,10.65l-69.94.22,0.03,10.01,66.77-.21q24.54-.075,38.96-13.19t14.35-34.954q-0.06-21.852-14.57-34.866t-39.05-12.936l-66.77.214,0.03,10.01ZM1574.04,1556.21l85.32,81.57,7.09-7.41-85.32-81.58Zm112.65,93.44a6.814,6.814,0,0,0-5.09,2.14,7.3,7.3,0,0,0-2.12,5.4,7.154,7.154,0,0,0,2.27,5.21,6.785,6.785,0,0,0,5.23,1.96,7.516,7.516,0,0,0,5.21-2.45,7.09,7.09,0,0,0-.23-10.18A7.223,7.223,0,0,0,1686.69,1649.65Zm-615.73,150.27,0.09,75.44q0.015,15.87-9.19,25.7t-23.73,9.86q-14.64.015-23.81-9.8t-9.19-25.69l-0.08-75.44-10.013.02,0.085,75.43q0.018,15.87-9.126,25.71T962.081,1911q-14.524.03-23.754-9.8-9.226-9.81-9.245-25.68L929,1800.08l-10.254.01,0.082,72.27q0.024,22.335,11.819,35.14t31.936,12.78a40.116,40.116,0,0,0,21.356-5.7q9.271-5.685,16.214-17.29,6.6,11.46,15.95,17.19a40.309,40.309,0,0,0,21.55,5.72q20.145-.03,31.79-12.86t11.62-35.17l-0.09-72.26ZM418.268,1550.18l-85.926,80.94,7.031,7.46,85.925-80.93Zm-99.2,107.61a6.816,6.816,0,0,0-1.875-5.19,7.294,7.294,0,0,0-5.282-2.4,7.152,7.152,0,0,0-5.327,2,6.769,6.769,0,0,0-2.226,5.11,7.519,7.519,0,0,0,2.173,5.33,7.092,7.092,0,0,0,10.18.31A7.271,7.271,0,0,0,319.067,1657.79ZM103.6,979.049a27.669,27.669,0,0,0-6.286-3.871,14.5,14.5,0,0,0-5.879-1.19,9.224,9.224,0,0,0-8.174,4.277q-2.682,4.194-2.548,12.859l0.931,60.056,9.52-.15-0.954-61.519a5.663,5.663,0,0,1,.8-3.308,2.586,2.586,0,0,1,2.178-1.255,3.424,3.424,0,0,1,1.409.345,9.9,9.9,0,0,1,1.787,1.071l78.991,63.116a47.09,47.09,0,0,0,7.523,4.89,12.029,12.029,0,0,0,5.145,1.14,10.241,10.241,0,0,0,8.542-4.22q3.048-4.14,2.935-11.46l-1.1-70.8-10.253.159,1.073,69.208a7.8,7.8,0,0,1-.733,3.92,2.48,2.48,0,0,1-2.237,1.37,4.941,4.941,0,0,1-1.961-.45,8.538,8.538,0,0,1-2.219-1.44Zm326.717-623.2q14.8,16.794,15.067,36.172t-13.941,33.656A46.006,46.006,0,0,1,396.3,439.705q-20.676-.508-36.078-15.834-15.489-15.411-16.06-36.212a46.574,46.574,0,0,1,14.066-35.512,44.26,44.26,0,0,1,17.839-11.181,45.582,45.582,0,0,1,21.144-1.521l-16.873,86.188,8.983,2.221,19.089-97.069q-16.584-4.1-30.859-.31A55.98,55.98,0,0,0,352,345.6a60.155,60.155,0,0,0-13.243,19.714,58.7,58.7,0,0,0-4.343,23.058,62.784,62.784,0,0,0,38.252,56.656,60.44,60.44,0,0,0,23.447,4.731,57.531,57.531,0,0,0,22.906-4.33,58.432,58.432,0,0,0,19.259-12.954q17.307-17.392,17.246-41.044t-17.632-43.2Z"/>
  <path id="mini_mize" data-name="mini mize" class="cls-1" d="M771.549,853.267v2.563a21.918,21.918,0,0,1,8.423,1.888,12.913,12.913,0,0,1,5,4.931,19.052,19.052,0,0,1,2.685,8.219,170.227,170.227,0,0,1,.611,17.595v30.075q0,10.715-.55,16.376a26.45,26.45,0,0,1-1.892,8.463,12.549,12.549,0,0,1-5.127,6.028q-3.175,1.764-10.5,2.739v2.563h53.955v-2.563q-9.154-1.706-12.573-5a12.659,12.659,0,0,1-3.784-6.4q-0.978-3.838-.977-12.132l-0.122-9.022v-22.31a95.385,95.385,0,0,1,1.4-18.1,33.657,33.657,0,0,1,4.689-12.009,25.412,25.412,0,0,1,9.62-8.9,27,27,0,0,1,13.031-3.292,23.658,23.658,0,0,1,10.962,2.5,18.534,18.534,0,0,1,7.549,6.888,27.689,27.689,0,0,1,3.471,10.789,170.254,170.254,0,0,1,.914,20.909v22.554q0,10.61-.549,16.277a26.523,26.523,0,0,1-1.892,8.473,13.342,13.342,0,0,1-5.188,6.035q-3.114,1.769-10.437,2.743v2.563H894.23v-2.563q-9.279-1.706-12.7-5a13.074,13.074,0,0,1-3.662-6.4q-0.978-3.838-.976-12.132l-0.122-9.264V895.818q0-20.36,5.968-29.992,6.818-11.214,21.921-11.217,14,0,19.728,10.363a30.194,30.194,0,0,1,3.288,10.607,161.966,161.966,0,0,1,.853,19.75v23.287q0,10.61-.55,16.277a26.5,26.5,0,0,1-1.892,8.473A13.342,13.342,0,0,1,920.9,949.4q-3.113,1.769-10.437,2.743v2.563H964.42v-2.563q-9.154-1.706-12.695-5a13.064,13.064,0,0,1-3.662-6.4q-0.98-3.839-.977-12.13l-0.122-9.268V878.013q0-12.924-9.216-20.911t-23.865-7.986a47.241,47.241,0,0,0-20.264,4.395q-9.4,4.394-18.676,13.794-5.984-8.79-10.62-12.329-7.69-5.861-19.166-5.86a47.348,47.348,0,0,0-19.958,4.395,55.191,55.191,0,0,0-17.273,12.573,95.625,95.625,0,0,0-2.817-16.968ZM971.5,856.074a21.984,21.984,0,0,1,8.423,1.883,12.919,12.919,0,0,1,5,4.919,18.983,18.983,0,0,1,2.686,8.2,169.741,169.741,0,0,1,.61,17.549v30q0,10.689-.549,16.336a26.334,26.334,0,0,1-1.893,8.44,12.537,12.537,0,0,1-5.126,6.014q-3.177,1.762-10.5,2.732v2.563h53.953v-2.563q-9.15-1.7-12.57-4.988a12.639,12.639,0,0,1-3.78-6.386q-0.99-3.831-.98-12.1l-0.12-9.245V849.116l-35.16,4.395v2.563Zm33.37-53.833a10.864,10.864,0,0,0-.06-15.32,11.474,11.474,0,0,0-15.714,0,10.863,10.863,0,0,0-.061,15.32A11.8,11.8,0,0,0,1004.87,802.241Zm27.18,51.27v2.563a21.962,21.962,0,0,1,8.42,1.883,12.9,12.9,0,0,1,5,4.919,18.9,18.9,0,0,1,2.69,8.2,168.578,168.578,0,0,1,.61,17.549v30q0,10.689-.55,16.336a26.292,26.292,0,0,1-1.89,8.44,12.507,12.507,0,0,1-5.13,6.014q-3.165,1.762-10.5,2.732v2.563h53.96v-2.563c-6.1-1.137-10.3-2.8-12.57-5a12.619,12.619,0,0,1-3.79-6.4q-0.975-3.838-.97-12.132l-0.13-9.022V895.7q0-14.265,1.16-20.422a26.152,26.152,0,0,1,4.81-11.034,23.154,23.154,0,0,1,9.32-7.315,30.4,30.4,0,0,1,12.72-2.682,27.634,27.634,0,0,1,11.57,2.379,18.464,18.464,0,0,1,8.04,6.643,23.894,23.894,0,0,1,3.47,10,148.119,148.119,0,0,1,.92,19.507v25.846q0,10.61-.55,16.277a26.436,26.436,0,0,1-1.9,8.473,12.569,12.569,0,0,1-5.12,6.035q-3.18,1.769-10.5,2.743v2.563h53.95v-2.563q-9.15-1.706-12.57-5a12.671,12.671,0,0,1-3.78-6.4q-0.99-3.839-.98-12.13v-51.7q0-13.29-9.4-20.485-9.525-7.312-25.15-7.315-20.865,0-36.01,15.217V862.37a56.476,56.476,0,0,0-1.72-13.254Zm130.12,2.563a22.02,22.02,0,0,1,8.43,1.883,12.9,12.9,0,0,1,5,4.919,19.036,19.036,0,0,1,2.69,8.2,171.515,171.515,0,0,1,.61,17.549v30q0,10.689-.55,16.336a26.564,26.564,0,0,1-1.89,8.44,12.612,12.612,0,0,1-5.13,6.014q-3.18,1.762-10.5,2.732v2.563h53.96v-2.563q-9.165-1.7-12.58-4.988a12.639,12.639,0,0,1-3.78-6.386,53.814,53.814,0,0,1-.98-12.1l-0.12-9.245V849.116l-35.16,4.395v2.563Zm33.37-53.833a10.864,10.864,0,0,0-.06-15.32,11.469,11.469,0,0,0-15.71,0,10.864,10.864,0,0,0-.06,15.32A11.789,11.789,0,0,0,1195.54,802.241ZM771.549,1069.93v2.57a21.731,21.731,0,0,1,8.423,1.89,12.834,12.834,0,0,1,5,4.93,19.048,19.048,0,0,1,2.685,8.21,170.4,170.4,0,0,1,.611,17.6v30.07q0,10.725-.55,16.38a26.348,26.348,0,0,1-1.892,8.46,12.531,12.531,0,0,1-5.127,6.03q-3.175,1.77-10.5,2.74v2.56h53.955v-2.56q-9.154-1.71-12.573-5a12.641,12.641,0,0,1-3.784-6.4q-0.978-3.84-.977-12.13l-0.122-9.02v-22.31a95.472,95.472,0,0,1,1.4-18.11,33.73,33.73,0,0,1,4.689-12.01,25.516,25.516,0,0,1,9.62-8.9,27.038,27.038,0,0,1,13.031-3.29,23.746,23.746,0,0,1,10.962,2.5,18.532,18.532,0,0,1,7.549,6.89,27.666,27.666,0,0,1,3.471,10.79,170.284,170.284,0,0,1,.914,20.91v22.55q0,10.62-.549,16.28a26.515,26.515,0,0,1-1.892,8.47,13.341,13.341,0,0,1-5.188,6.04q-3.114,1.77-10.437,2.74v2.56H894.23v-2.56q-9.279-1.71-12.7-5a13.055,13.055,0,0,1-3.662-6.4q-0.978-3.84-.976-12.13l-0.122-9.26v-23.54q0-20.355,5.968-29.99,6.818-11.205,21.921-11.21,14,0,19.728,10.36a30.138,30.138,0,0,1,3.288,10.61,161.8,161.8,0,0,1,.853,19.75v23.28q0,10.62-.55,16.28a26.488,26.488,0,0,1-1.892,8.47,13.341,13.341,0,0,1-5.188,6.04q-3.113,1.77-10.437,2.74v2.56H964.42v-2.56q-9.154-1.71-12.695-5a13.048,13.048,0,0,1-3.662-6.4q-0.98-3.84-.977-12.13l-0.122-9.27v-41.33q0-12.93-9.216-20.91t-23.865-7.99a47.244,47.244,0,0,0-20.264,4.4q-9.4,4.395-18.676,13.79-5.984-8.79-10.62-12.33-7.69-5.85-19.166-5.86a47.353,47.353,0,0,0-19.958,4.4,55.212,55.212,0,0,0-17.273,12.57,95.767,95.767,0,0,0-2.817-16.97Zm199.951,2.81a22.122,22.122,0,0,1,8.423,1.88,13.013,13.013,0,0,1,5,4.92,19.015,19.015,0,0,1,2.686,8.2,169.75,169.75,0,0,1,.61,17.55v30q0,10.68-.549,16.34a26.429,26.429,0,0,1-1.893,8.44,12.573,12.573,0,0,1-5.126,6.01q-3.177,1.755-10.5,2.73v2.56h53.953v-2.56q-9.15-1.695-12.57-4.99a12.638,12.638,0,0,1-3.78-6.38q-0.99-3.84-.98-12.11l-0.12-9.24v-70.31l-35.16,4.4v2.56Zm33.37-53.83a10.864,10.864,0,0,0-.06-15.32,11.48,11.48,0,0,0-15.714,0,10.863,10.863,0,0,0-.061,15.32A11.8,11.8,0,0,0,1004.87,1018.91Zm32.91,74.34,2.32,0.24q3.54-9.765,7.45-14.28a22.488,22.488,0,0,1,9.46-6.47q5.31-1.83,15.08-1.83h26.73l-68.12,98.02v2.44h91.19l2.56-28.07-2.44-.37q-4.635,14.16-14.52,19.65-5.13,2.82-14.16,4.16a163.027,163.027,0,0,1-23.07,1.34h-16.48l68.11-97.9v-2.57h-81.54Zm190.68,11.72q0-15.39-8.91-25.64a37.728,37.728,0,0,0-14.04-10.07,46.3,46.3,0,0,0-18.07-3.48,50.95,50.95,0,0,0-32.59,11.36q-19.65,15.615-19.65,43.09,0,20.13,10.37,33.93a45.787,45.787,0,0,0,18.19,14.65q10.74,4.755,25.76,4.76,17.325,0,27.77-7.26t13.61-21.55l-2.56-.85q-3.165,9.4-7.55,13.67a26.612,26.612,0,0,1-9.79,6.1,35.31,35.31,0,0,1-12.47,2.2,39.506,39.506,0,0,1-30.54-14.65,50.369,50.369,0,0,1-8.45-16.84,70.509,70.509,0,0,1-3.1-20.76q0-2.67.49-8.66h71.53Zm-70.81-4.76q1.47-13.68,9.3-22.71t18.29-9.03a21.325,21.325,0,0,1,11.66,3.48,25.5,25.5,0,0,1,8.75,9.46q3.645,6.585,4.5,18.8h-52.5Z"/>
</svg>
